<svg width="36" height="36" viewBox="0 0 36 36" fill="none" xmlns="http://www.w3.org/2000/svg">
<rect width="36" height="36" rx="18" fill="#9EEA6C" fill-opacity="0.25"/>
<path d="M25.185 21.2481C25.305 19.8306 24.9375 18.4581 25.9425 17.4531L26.565 16.8306C28.335 15.0606 28.335 12.1806 26.565 10.4106L25.17 9.01562L24.165 10.0206C23.0475 10.0506 21.9375 10.4931 21.0825 11.3481L20.925 11.4981C19.92 12.5031 18.5925 13.1181 17.1825 13.2381C15.3075 13.3956 13.5525 14.2131 12.2176 15.5481C9.99008 17.7756 9.38258 21.0081 10.4026 23.7831L9.89258 24.2931L11.8051 26.2056C14.865 29.2656 19.8225 29.2656 22.8825 26.2056C24.21 24.8781 25.0275 23.1231 25.185 21.2481Z" fill="#44911B"/>
<path d="M21.495 7.5C20.115 7.5 18.81 8.04 17.835 9.015L17.7 9.1575C16.9875 9.87 16.035 10.3125 15.0225 10.4025C13.08 10.5675 11.2575 11.415 9.885 12.7875C8.3475 14.325 7.5 16.3725 7.5 18.54C7.5 20.715 8.3475 22.755 9.885 24.2925C11.4225 25.83 13.4625 26.6775 15.6375 26.6775C17.8125 26.6775 19.8525 25.83 21.39 24.2925C22.7625 22.92 23.6175 21.09 23.7825 19.155C23.865 18.1425 24.3075 17.1975 25.0275 16.4775L25.17 16.335C26.145 15.36 26.685 14.055 26.685 12.675C26.685 11.295 26.145 9.99 25.17 9.015C24.18 8.04 22.8825 7.5 21.495 7.5Z" fill="#008463"/>
<path d="M24.2402 15.6966L24.3827 15.5541C25.9727 13.9641 25.9727 11.3841 24.3827 9.79406C22.7927 8.20406 20.2127 8.20406 18.6227 9.79406L18.4802 9.93656C17.5802 10.8366 16.3877 11.3916 15.1202 11.4966C13.4327 11.6391 11.8577 12.3741 10.6652 13.5666C7.9202 16.3116 7.9202 20.7591 10.6652 23.5041C13.4102 26.2491 17.8577 26.2491 20.6027 23.5041C21.7952 22.3116 22.5302 20.7366 22.6727 19.0491C22.7852 17.7891 23.3402 16.5966 24.2402 15.6966Z" fill="#C3EF3C"/>
<path d="M15.9672 21.5166C17.7732 21.5166 19.2372 20.0525 19.2372 18.2466C19.2372 16.4406 17.7732 14.9766 15.9672 14.9766C14.1613 14.9766 12.6973 16.4406 12.6973 18.2466C12.6973 20.0525 14.1613 21.5166 15.9672 21.5166Z" fill="#6D4534"/>
</svg>
