<svg width="29" height="29" viewBox="0 0 29 29" fill="none" xmlns="http://www.w3.org/2000/svg">
<path d="M23.1816 18.424C23.3266 16.7112 22.8825 15.0528 24.0969 13.8384L24.8491 13.0862C25.8762 12.0566 26.453 10.6617 26.453 9.20744C26.453 7.75315 25.8762 6.35824 24.8491 5.32869L23.1634 3.64307L21.9491 4.85744C20.5987 4.89369 19.2575 5.42838 18.2244 6.4615L18.0341 6.64275C16.8218 7.85499 15.2201 8.59969 13.5119 8.74525C11.2462 8.93557 9.12562 9.92338 7.5125 11.5365C6.23464 12.8124 5.34898 14.4276 4.96032 16.191C4.57166 17.9544 4.69626 19.7923 5.31937 21.4871L4.70312 22.1034L7.01406 24.4143C7.89271 25.2936 8.93603 25.9912 10.0844 26.4671C11.2328 26.943 12.4636 27.188 13.7067 27.188C14.9498 27.188 16.1807 26.943 17.329 26.4671C18.4774 25.9912 19.5207 25.2936 20.3994 24.4143C22.0034 22.8103 22.9912 20.6896 23.1816 18.424Z" fill="url(#paint0_linear_1_1174)"/>
<path d="M18.7231 3.14469C19.6961 3.14541 20.6471 3.43445 21.4559 3.9753C22.2647 4.51616 22.8951 5.28457 23.2675 6.18349C23.6399 7.08241 23.7375 8.07151 23.5481 9.02588C23.3586 9.98026 22.8906 10.8571 22.2031 11.5456L22.031 11.7178C20.9422 12.8056 20.2744 14.2441 20.146 15.7778C19.9728 17.8109 19.087 19.7175 17.6447 21.1609C16.8567 21.9517 15.9203 22.5789 14.8892 23.0066C13.858 23.4342 12.7526 23.654 11.6363 23.6531C9.46126 23.6531 7.28626 22.8194 5.62782 21.1609C4.83915 20.3726 4.21351 19.4367 3.78666 18.4065C3.35981 17.3763 3.14011 16.2721 3.14011 15.157C3.14011 14.0419 3.35981 12.9378 3.78666 11.9076C4.21351 10.8774 4.83915 9.94144 5.62782 9.15313C7.07033 7.70957 8.97742 6.82345 11.0109 6.65188C12.5425 6.52501 13.9834 5.85438 15.0709 4.76688L15.2431 4.59469C15.6979 4.13411 16.2398 3.76868 16.8373 3.51973C17.4348 3.27078 18.0759 3.14329 18.7231 3.14469ZM18.7231 1.81251C17.0556 1.81251 15.4788 2.46501 14.3006 3.64313L14.1375 3.81532C13.2766 4.67626 12.1256 5.21094 10.9022 5.31969C8.55501 5.51907 6.35282 6.54313 4.69439 8.20157C3.7792 9.11275 3.05338 10.196 2.55877 11.389C2.06416 12.582 1.81054 13.8611 1.81251 15.1525C1.81251 17.7806 2.83657 20.2456 4.69439 22.1034C6.5522 23.9613 9.0172 24.9853 11.6453 24.9853C14.2734 24.9853 16.7385 23.9613 18.5963 22.1034C20.2547 20.445 21.2878 18.2338 21.4872 15.8956C21.5885 14.6727 22.1218 13.5258 22.9916 12.6603L23.1638 12.4881C23.7456 11.9082 24.2069 11.2189 24.521 10.4598C24.8352 9.70081 24.9961 8.88711 24.9944 8.06563C24.9944 6.39813 24.3419 4.82126 23.1638 3.64313C21.9846 2.46864 20.3874 1.81022 18.7231 1.81251Z" fill="#337D63"/>
<path d="M22.0393 11.7179L22.2115 11.5457C22.6685 11.0888 23.0311 10.5462 23.2785 9.94913C23.5258 9.35202 23.6531 8.71204 23.6531 8.06572C23.6531 7.41941 23.5258 6.77942 23.2785 6.18232C23.0311 5.58522 22.6685 5.04269 22.2115 4.58572C21.7545 4.12866 21.212 3.76609 20.6149 3.51873C20.0178 3.27136 19.3778 3.14404 18.7315 3.14404C18.0851 3.14404 17.4452 3.27136 16.8481 3.51873C16.251 3.76609 15.7084 4.12866 15.2515 4.58572L15.0793 4.75791C13.9915 5.84662 12.5529 6.5145 11.0193 6.64291C8.98574 6.81448 7.07866 7.7006 5.63615 9.14416C4.84747 9.93247 4.22184 10.8685 3.79499 11.8986C3.36814 12.9288 3.14844 14.033 3.14844 15.1481C3.14844 16.2632 3.36814 17.3673 3.79499 18.3975C4.22184 19.4277 4.84747 20.3637 5.63615 21.152C6.42446 21.9407 7.36044 22.5663 8.39061 22.9931C9.42078 23.42 10.525 23.6397 11.6401 23.6397C12.7552 23.6397 13.8593 23.42 14.8895 22.9931C15.9197 22.5663 16.8556 21.9407 17.644 21.152C19.0875 19.7095 19.9736 17.8024 20.1452 15.7688C20.2812 14.2463 20.9518 12.8054 22.0393 11.7179Z" fill="#89BA4F"/>
<path d="M22.0393 11.7179L22.2115 11.5457C22.6685 11.0888 23.0311 10.5462 23.2785 9.94913C23.5258 9.35202 23.6531 8.71204 23.6531 8.06572C23.6531 7.41941 23.5258 6.77942 23.2785 6.18232C23.0311 5.58522 22.6685 5.04269 22.2115 4.58572C21.7545 4.12866 21.212 3.76609 20.6149 3.51873C20.0178 3.27136 19.3778 3.14404 18.7315 3.14404C18.0851 3.14404 17.4452 3.27136 16.8481 3.51873C16.251 3.76609 15.7084 4.12866 15.2515 4.58572L15.0793 4.75791C13.9915 5.84662 12.5529 6.5145 11.0193 6.64291C8.98574 6.81448 7.07866 7.7006 5.63615 9.14416C4.84747 9.93247 4.22184 10.8685 3.79499 11.8986C3.36814 12.9288 3.14844 14.033 3.14844 15.1481C3.14844 16.2632 3.36814 17.3673 3.79499 18.3975C4.22184 19.4277 4.84747 20.3637 5.63615 21.152C6.42446 21.9407 7.36044 22.5663 8.39061 22.9931C9.42078 23.42 10.525 23.6397 11.6401 23.6397C12.7552 23.6397 13.8593 23.42 14.8895 22.9931C15.9197 22.5663 16.8556 21.9407 17.644 21.152C19.0875 19.7095 19.9736 17.8024 20.1452 15.7688C20.2812 14.2463 20.9518 12.8054 22.0393 11.7179Z" fill="url(#paint1_radial_1_1174)"/>
<g filter="url(#filter0_f_1_1174)">
<path d="M11.0606 19.7062C12.1086 19.7062 13.1136 19.2899 13.8546 18.5489C14.5956 17.8079 15.0119 16.8029 15.0119 15.755C15.0119 14.707 14.5956 13.702 13.8546 12.961C13.1136 12.22 12.1086 11.8037 11.0606 11.8037C10.0127 11.8037 9.00767 12.22 8.26667 12.961C7.52567 13.702 7.10938 14.707 7.10938 15.755C7.10938 16.8029 7.52567 17.8079 8.26667 18.5489C9.00767 19.2899 10.0127 19.7062 11.0606 19.7062Z" fill="#6A8729"/>
</g>
<path d="M12.045 18.7502C13.0929 18.7502 14.098 18.3339 14.839 17.5929C15.58 16.8519 15.9962 15.8468 15.9962 14.7989C15.9962 13.751 15.58 12.746 14.839 12.005C14.098 11.2639 13.0929 10.8477 12.045 10.8477C10.9971 10.8477 9.99205 11.2639 9.25104 12.005C8.51004 12.746 8.09375 13.751 8.09375 14.7989C8.09375 15.8468 8.51004 16.8519 9.25104 17.5929C9.99205 18.3339 10.9971 18.7502 12.045 18.7502Z" fill="url(#paint2_radial_1_1174)"/>
<defs>
<filter id="filter0_f_1_1174" x="5.10938" y="9.80371" width="11.9023" height="11.9023" filterUnits="userSpaceOnUse" color-interpolation-filters="sRGB">
<feFlood flood-opacity="0" result="BackgroundImageFix"/>
<feBlend mode="normal" in="SourceGraphic" in2="BackgroundImageFix" result="shape"/>
<feGaussianBlur stdDeviation="1" result="effect1_foregroundBlur_1_1174"/>
</filter>
<linearGradient id="paint0_linear_1_1174" x1="26.4531" y1="8.38275" x2="9.96844" y2="26.0546" gradientUnits="userSpaceOnUse">
<stop offset="0.011" stop-color="#A9EC4A"/>
<stop offset="0.13" stop-color="#88C83E"/>
<stop offset="0.1301" stop-color="#82C03F"/>
<stop offset="0.257" stop-color="#578546"/>
<stop offset="0.38" stop-color="#55A052"/>
<stop offset="0.601" stop-color="#275B57"/>
<stop offset="0.751" stop-color="#294F59"/>
<stop offset="1" stop-color="#395468"/>
</linearGradient>
<radialGradient id="paint1_radial_1_1174" cx="0" cy="0" r="1" gradientUnits="userSpaceOnUse" gradientTransform="translate(6.68287 8.38291) rotate(56.8393) scale(18.2248 49.4242)">
<stop offset="0.351" stop-color="#D9F650"/>
<stop offset="0.815" stop-color="#DEFB4F" stop-opacity="0"/>
</radialGradient>
<radialGradient id="paint2_radial_1_1174" cx="0" cy="0" r="1" gradientUnits="userSpaceOnUse" gradientTransform="translate(13.7642 13.3671) rotate(140.505) scale(6.67927)">
<stop offset="0.129" stop-color="#D5A891"/>
<stop offset="0.444" stop-color="#A07751"/>
<stop offset="0.792" stop-color="#57463C"/>
<stop offset="0.983" stop-color="#5B5830"/>
</radialGradient>
</defs>
</svg>
